# xmcd
#
# Track frame offsets:
#	182
#	12030
#	21820
#	33232
#	51680
#	64550
#	77207
#	84965
#	100847
#	113680
#
# Disc length: 1708 seconds
#
# Revision: 0
# Processed by: cddbd v1.4PL0 Copyright (c) Steve Scherf et al.
# Submitted via: dBpowerAMP V4.0
#
DISCID=6f06aa0a
DTITLE=Marco Antonio Muñiz - Los Grandes Exitos
DYEAR=1983
DGENRE=Latin
TTITLE0=Escandalo
TTITLE1=Adelante
TTITLE2=Lamento Borincano
TTITLE3=Nadita de nada
TTITLE4=Que murmuren
TTITLE5=Luz y sombra
TTITLE6=Te amare toda la vida
TTITLE7=Por amor
TTITLE8=Paloma negra
TTITLE9=De lo que te has perdido
EXTD=
EXTT0=
EXTT1=
EXTT2=
EXTT3=
EXTT4=
EXTT5=
EXTT6=
EXTT7=
EXTT8=
EXTT9=
PLAYORDER=
